<?xml version="1.0" encoding="utf-8"?>
<!-- Generator: Adobe Illustrator 22.1.0, SVG Export Plug-In . SVG Version: 6.00 Build 0)  -->
<svg version="1.1" id="Слой_1" xmlns="http://www.w3.org/2000/svg" xmlns:xlink="http://www.w3.org/1999/xlink" x="0px" y="0px"
	 viewBox="0 0 184 57" style="enable-background:new 0 0 184 57;" xml:space="preserve">
<style type="text/css">
	.st0{fill:#262626;}
</style>
<path class="st0" d="M13.5,3.7C9.9,5.2,6,9.5,4.7,14.8c-1.6,6.8,5,9.7,5.5,8.7c0.6-1.1-1.2-1.5-1.5-5C8.2,14,10.3,8.9,13,6.7
	c0.5-0.4,0.5,0.2,0.5,1.2c0,1.9-0.1,19-0.1,22.6c0,4.8-0.2,6.4-0.6,7.9c-0.4,1.5-0.9,2.6-0.5,3c0.5,0.4,2.6-0.6,3.8-2.3
	c1.5-2,2-4.5,2.1-7.2c0.1-3.2,0.1-8.3,0.1-11.2c0-2.7,0-10.5,0-15.2C18.2,4.3,15,3,13.5,3.7 M140.7,26.3c-0.1,2.5-0.7,4.5-1.4,5.9
	c-1.3,2.7-4.1,3.5-5.2-0.3c-0.6-2.1-0.7-5.6-0.2-8.5c0.5-3,1.8-5.2,3.9-5C139.9,18.4,140.9,21.2,140.7,26.3L140.7,26.3z M104.8,41.9
	c0,4.2-0.7,7.8-2.1,8.9c-2,1.5-4.7,0.4-4.1-2.7c0.5-2.7,2.8-5.4,6.2-8.8C104.9,39.3,104.9,40.1,104.8,41.9L104.8,41.9z M104.3,26.3
	c-0.1,2.3-0.7,4.6-1.4,5.9c-1.3,2.7-4.1,3.5-5.2-0.3c-0.8-2.6-0.6-6.1-0.2-8.2c0.5-2.8,1.7-5.4,3.9-5.4
	C103.6,18.2,104.6,20.6,104.3,26.3L104.3,26.3z M83.5,26.2c-0.1,2.4-0.6,4.5-1.4,5.9c-1.4,2.7-4.1,3.5-5.2-0.3
	c-0.9-2.8-0.6-6.6-0.2-8.6c0.5-3,1.9-5.2,3.9-5C82.8,18.4,83.8,21.2,83.5,26.2L83.5,26.2z M178.7,29.1c-0.5,0-0.8,0.5-1,1.4
	c-0.7,3.2-1.4,3.9-2.3,3.9c-1,0-2-1.6-2.2-4.7c-0.2-2.5-0.2-7,0.1-11.5c0-0.9-0.2-1.8-2.7-2.7c-1.1-0.4-2.6-1-3.4,0.9
	c-2.2,5.3-3,9.5-3.2,11.2c0,0.1-0.1,0.1-0.1-0.1c-0.1-1.4-0.4-3.8-0.4-9c0-1-0.2-1.9-1.3-2.6c-0.7-0.5-2.9-1.3-3.7-0.3
	c-0.7,0.8-1.5,2.9-2.3,5.4c-0.7,2-1.1,3.4-1.1,3.4s0-5.5,0-7.6c0-0.8-0.5-1.1-0.7-1.1c-0.7-0.2-2.2-0.6-2.8-0.6
	c-0.8,0-0.9,0.4-0.9,1c0,0.1-0.1,7.3-0.1,12.3c0,0.2,0,0.5,0,0.7c-0.4,2.3-1.8,5.4-3.2,5.4c-1.5,0-2.2-1.3-2.2-7.3
	c0-3.5,0.1-5,0.2-7.5c0-1.5,0.1-2.6,0.1-2.8c0-0.8-1.3-1.2-2-1.3c-0.6-0.1-1.2-0.2-1.6-0.2c-0.6,0-1,0.4-1,1c0,0.3,0,0.8,0,0.8
	c-0.8-1.2-2-2.1-2.8-2.3c-2.2-0.7-4.6-0.1-6.3,2.4c-1.4,2-2.2,4.2-2.6,7.4c-0.2,2.3-0.2,4.7,0.3,6.7c-0.5,2.3-1.5,3.2-2.5,3.2
	c-1.5,0-2.6-2.5-2.5-6.9c0.1-2.9,0.7-4.9,1.3-7.8c0.3-1.2,0-1.9-0.5-2.5c-0.5-0.6-1.6-0.9-3.1-0.5c-1.1,0.3-2.6,0.5-4,0.7
	c0,0,0.1-0.3,0.2-0.9c0.4-3.2-3.1-2.9-4.1-1.9c-0.7,0.6-1.1,1.3-1.3,2.6c-0.3,2,1.4,3,1.4,3c-0.5,2.5-1.9,5.8-3.2,8.1
	c-0.7,1.3-1.3,2.2-2,3.2c0-0.4,0-0.7,0-1.1c0-5.2,0.1-9.4,0.1-10.9c0-1.5,0.1-2.5,0.1-2.8c0-0.6-0.3-0.8-1-1.1
	c-0.6-0.2-1.3-0.4-2.1-0.5c-0.9-0.1-1.5,0.4-1.5,1c0,0.1,0,0.8,0,0.8c-0.8-1.2-2-2.1-2.8-2.3c-2.2-0.7-4.6-0.1-6.3,2.4
	c-1.4,2-2.3,4.7-2.6,7.4c-0.2,2.5-0.2,4.6,0.1,6.3c-0.4,1.8-1.4,3.6-2.5,3.6c-1.5,0-2.3-1.3-2.3-7.3c0-3.5,0.1-5,0.2-7.5
	c0-1.5,0.1-2.6,0.1-2.8c0-0.8-1.3-1.2-2-1.3c-0.7-0.2-1.2-0.2-1.6-0.2c-0.6,0-1,0.6-1,0.9v0.9c-0.8-1.2-2-2.1-2.8-2.3
	c-2.2-0.7-4.5-0.1-6.3,2.4c-1.2,1.6-2.1,3.4-2.6,7.3c-0.1,1.1-0.2,2.2-0.2,3.2c-0.5,2.8-2.5,6.1-4.1,6.1c-1,0-1.9-1.9-1.9-5.9
	c0-5.4,0.3-13.1,0.4-13.8c0,0,2.1,0,2.5,0c1,0,2,0,3.4-0.1c0.7,0,1.4-2.6,0.7-2.9c-0.3-0.1-2.6-0.3-3.6-0.3c-0.8,0-2.9-0.2-2.9-0.2
	s0.2-5.1,0.2-5.6c0-0.4-0.5-0.7-0.9-0.8c-0.8-0.3-1.5-0.5-2.4-0.7c-1.2-0.2-1.7,0-1.8,1c-0.2,1.5-0.2,6-0.2,6
	c-0.9,0-3.8-0.2-4.7-0.2c-0.8,0-1.7,3.5-0.6,3.5c1.3,0,3.5,0.1,5,0.1c0,0-0.1,7.8-0.1,10.2c0,0.3,0,0.5,0,0.7
	c-0.8,4.3-3.7,6.6-3.7,6.6c0.6-2.8-0.6-4.9-2.9-6.7c-0.8-0.7-2.5-1.9-4.3-3.3c0,0,1.1-1.1,2-3.2c0.7-1.5,0.7-3.2-0.9-3.6
	c-2.7-0.6-4.9,1.4-5.6,3.5c-0.5,1.7-0.2,2.9,0.8,4.2c0.1,0.1,0.2,0.2,0.2,0.3c-0.6,1.2-1.5,2.8-2.2,4c-2,3.4-3.5,6.2-4.6,6.2
	c-0.9,0-0.9-2.8-0.9-5.4c0-2.2,0.2-5.6,0.3-9.1c0-1.1-0.5-1.8-1.5-2.4c-0.6-0.4-1.8-1.1-2.5-1.1c-1.1,0-4.2,0.1-7.1,8.7
	c-0.4,1.1-1.1,3-1.1,3l0.1-10.3c0-0.2-0.1-0.5-0.4-0.6c-0.5-0.3-1.8-0.8-3-0.8c-0.6,0-0.8,0.3-0.8,0.8l-0.1,16.1
	c0,1.2,0,2.6,0.2,3.3c0.1,0.6,0.3,1.1,0.6,1.4c0.2,0.3,0.5,0.5,1,0.6c0.4,0.1,2.8,0.4,2.9-0.5c0.1-1.1,0.2-2.2,1.4-6.6
	c1.9-6.7,4.4-10,5.5-11.2c0.2-0.2,0.4-0.2,0.4,0.1c0,1.5-0.2,5.2-0.3,8.3c-0.3,8.4,1.2,9.9,3.4,9.9c1.7,0,4-1.7,6.5-5.9
	c1.6-2.6,3.1-5.2,4.2-7c0.8,0.7,1.6,1.5,2.5,2.3c2,1.9,2.6,3.7,2.2,5.4c-0.3,1.3-1.6,2.6-3.8,1.3c-0.6-0.4-0.9-0.7-1.6-1.1
	c-0.3-0.2-0.9-0.3-1.2-0.1c-0.8,0.6-1.3,1.4-1.6,2.4c-0.3,1,0.7,1.5,1.7,1.9c0.9,0.4,2.7,0.7,3.9,0.8c4.6,0.2,8.2-2.2,10.8-8.3
	c0.5,5.3,2.4,8.3,5.8,8.3c2.3,0,4.5-2.9,5.5-5.8c0.3,1.2,0.7,2.2,1.2,3.1c2.6,4.1,7.6,3.2,10.2-0.3c0.8-1.1,0.9-1.5,0.9-1.5
	c0.4,3.3,3,4.5,4.5,4.5c1.7,0,3.5-0.8,4.7-3.6c0.1,0.3,0.3,0.6,0.5,0.9c2.6,4.1,7.6,3.2,10.2-0.3c0.1-0.2,0.2-0.3,0.3-0.4l0.1,2.2
	c0,0-1.4,1.3-2.3,2.2c-3.9,3.6-6.9,6.3-7.1,9.5c-0.3,4.1,3,5.6,5.5,5.8c2.6,0.2,4.9-1.3,6.3-3.3c1.2-1.8,2-5.7,2-9.5
	c0-1.5-0.1-3.5-0.1-5.6c1.4-1.6,2.9-3.6,4.3-6c1.5-2.6,3.2-6.1,4.1-8.8c0,0,1.4,0,3-0.1c0.5,0,0.6,0.1,0.5,0.4
	c-0.1,0.4-1.9,7.6-0.3,12.3c1.1,3.2,3.7,4.3,5.3,4.3c1.8,0,3.5-1.4,4.4-3.4c0.1,0.2,0.2,0.4,0.4,0.6c2.6,4.1,7.6,3.2,10.2-0.3
	c0.6-0.8,0.9-1.5,0.9-1.5c0.5,3.4,3.2,4.5,4.7,4.5c1.6,0,3.1-0.7,4.3-3.6c0.1,1.3,0.1,2.3,0.3,2.7c0.1,0.2,0.5,0.5,0.9,0.6
	c1.4,0.5,2.9,0.3,3.5,0.2c0.4-0.1,0.7-0.4,0.7-1.2c0.1-2.1,0-5.6,0.7-8.1c1-4.3,2-6,2.5-6.9c0.3-0.5,0.6-0.5,0.6,0
	c0,1,0.1,3.9,0.5,7.9c0.3,2.9,0.7,4.6,1,5.2c0.9,1.6,2,1.6,2.8,1.6c0.6,0,1.7-0.2,1.6-1.1c-0.1-0.5,0-3.5,1.1-7.7
	c0.7-2.8,1.8-5.3,2.2-6.2c0.1-0.3,0.2-0.1,0.2,0c-0.1,1.9-0.3,8.2,0.5,11.7c1.1,4.7,4.1,5.2,5.2,5.2c2.3,0,4.1-1.7,4.8-6.3
	C179.6,29.9,179.4,29.1,178.7,29.1"/>
</svg>
